<svg xmlns="http://www.w3.org/2000/svg" width="29.971" height="30.04" viewBox="0 0 29.971 30.04">
  <g id="Group_31" data-name="Group 31" transform="translate(962.262 171.621)">
    <path id="bars-solid" d="M1.424,4.5,35.516,5.591c.724.023,1.3-.406,1.279-.958l-.08-2.5a1.282,1.282,0,0,0-1.343-1.042L1.28,0C.556-.021-.017.408,0,.96l.08,2.5A1.282,1.282,0,0,0,1.424,4.5Z" transform="translate(-962.263 -145.603) rotate(-45)" fill="#fff"/>
    <path id="bars-solid-2" data-name="bars-solid" d="M1.276,5.564,35.368,4.474a1.282,1.282,0,0,0,1.343-1.042l.08-2.5c.018-.552-.555-.981-1.279-.958L1.42,1.064A1.282,1.282,0,0,0,.077,2.106L0,4.606C-.021,5.158.552,5.587,1.276,5.564Z" transform="translate(-958.325 -171.531) rotate(45)" fill="#fff"/>
  </g>
</svg>
